<?xml version="1.0" standalone="no"?>
<!DOCTYPE svg PUBLIC "-//W3C//DTD SVG 20010904//EN"
 "http://www.w3.org/TR/2001/REC-SVG-20010904/DTD/svg10.dtd">
<svg version="1.0" xmlns="http://www.w3.org/2000/svg"
 width="512.000000pt" height="512.000000pt" viewBox="0 0 512.000000 512.000000"
 preserveAspectRatio="xMidYMid meet">
<metadata>
Created by potrace 1.14, written by Peter Selinger 2001-2017
</metadata>
<g transform="translate(0.000000,512.000000) scale(0.100000,-0.100000)"
fill="#000000" stroke="none">
<path d="M1570 4415 c0 -6 -37 -10 -92 -9 -50 0 -108 -2 -129 -6 -21 -4 -43
-3 -50 1 -8 4 -19 3 -25 -2 -7 -5 -16 -9 -20 -8 -5 1 -11 0 -14 -1 -6 -2 -28
-6 -90 -16 -47 -8 -57 -10 -65 -14 -3 -1 -13 -3 -22 -5 -10 -1 -25 -4 -33 -7
-8 -3 -35 -11 -60 -18 -73 -21 -204 -73 -212 -85 -4 -5 -8 -7 -8 -3 0 10 -121
-55 -192 -104 -35 -23 -63 -40 -63 -38 0 2 -11 -7 -26 -20 -14 -14 -38 -36
-55 -49 -64 -52 -112 -100 -106 -105 3 -3 0 -6 -5 -6 -11 0 -113 -123 -113
-135 0 -3 -9 -16 -20 -28 -12 -12 -23 -32 -26 -44 -4 -13 -10 -23 -14 -23 -6
0 -67 -143 -85 -200 -11 -36 -25 -93 -31 -125 -10 -63 -12 -236 -3 -296 5 -30
11 -69 14 -87 3 -19 10 -42 15 -52 6 -10 10 -25 10 -33 0 -8 8 -32 17 -53 9
-22 18 -46 19 -54 2 -8 8 -16 13 -18 6 -2 11 -10 11 -17 0 -27 100 -179 156
-240 18 -19 19 -57 21 -945 1 -509 4 -938 6 -955 14 -87 81 -224 140 -285 47
-49 119 -106 129 -102 5 1 11 -5 14 -13 3 -8 10 -12 15 -9 5 3 9 0 9 -7 0 -7
3 -9 7 -6 3 4 11 3 17 -2 7 -6 24 -12 39 -15 15 -2 31 -7 37 -11 5 -3 20 -9
32 -12 38 -10 3588 -10 3633 -1 22 5 48 10 58 11 9 1 17 5 17 9 0 4 3 7 8 6
12 -5 102 33 102 43 0 5 6 9 14 9 7 0 25 11 40 25 14 13 26 22 26 20 0 -7 74
71 98 103 12 17 22 36 22 42 0 5 4 10 8 10 6 0 20 28 31 62 1 4 8 23 16 42 8
18 11 36 8 40 -4 3 -2 6 3 6 5 0 11 8 12 18 1 9 3 409 5 889 1 479 5 875 9
878 4 4 3 17 -1 29 -9 25 -7 58 4 76 5 9 4 11 -3 6 -15 -9 -3 24 15 42 7 8 26
30 41 50 15 21 31 40 37 44 7 5 7 8 0 8 -6 0 -6 3 1 8 20 14 81 124 112 202
45 115 65 227 66 370 0 78 -5 158 -13 190 -26 109 -53 190 -64 190 -6 0 -7 3
-4 6 3 4 1 16 -5 28 -7 11 -13 27 -14 35 -2 8 -12 27 -23 42 -12 16 -21 33
-21 39 0 5 -5 10 -11 10 -5 0 -7 5 -4 10 3 6 1 10 -4 10 -6 0 -11 7 -11 15 0
8 -5 15 -10 15 -6 0 -14 8 -17 17 -4 9 -16 29 -27 43 -41 49 -204 206 -252
241 -65 47 -180 118 -196 121 -7 2 -15 5 -18 9 -17 18 -232 101 -325 125 -41
10 -45 11 -47 14 -4 2 -31 7 -78 14 -19 3 -56 9 -81 14 -25 5 -53 8 -62 6 -9
-1 -17 2 -17 8 0 7 -5 6 -14 -1 -8 -7 -16 -8 -19 -4 -3 4 -48 8 -101 8 -57 0
-96 4 -96 10 0 7 -3 7 -8 0 -4 -6 -55 -10 -117 -10 -62 0 -113 4 -117 10 -5 7
-8 7 -8 0 0 -6 -32 -10 -75 -10 -43 0 -75 4 -75 10 0 7 -3 7 -8 0 -4 -6 -55
-10 -117 -10 -62 0 -113 4 -117 10 -5 7 -8 7 -8 0 0 -6 -45 -10 -115 -10 -70
0 -115 4 -115 10 0 7 -3 7 -8 0 -4 -6 -163 -10 -440 -10 -281 0 -432 3 -432
10 0 7 -3 7 -8 0 -4 -6 -55 -10 -117 -10 -62 0 -113 4 -117 10 -5 7 -8 7 -8 0z"/>
</g>
</svg>
